<?xml version="1.0" standalone="no"?>
<!DOCTYPE svg PUBLIC "-//W3C//DTD SVG 20010904//EN"
 "http://www.w3.org/TR/2001/REC-SVG-20010904/DTD/svg10.dtd">
<svg version="1.0" xmlns="http://www.w3.org/2000/svg"
 width="512.000000pt" height="512.000000pt" viewBox="0 0 512.000000 512.000000"
 preserveAspectRatio="xMidYMid meet">
<metadata>
Created by potrace 1.14, written by Peter Selinger 2001-2017
</metadata>
<g transform="translate(0.000000,512.000000) scale(0.100000,-0.100000)"
fill="#000000" stroke="none">
<path d="M2505 4839 c-38 -20 -297 -171 -485 -282 -47 -27 -99 -57 -115 -66
-99 -52 -194 -117 -204 -138 -7 -16 -11 -132 -11 -343 l0 -319 -117 4 c-182 7
-338 14 -455 21 -129 8 -152 3 -167 -35 -9 -21 -11 -233 -8 -872 4 -920 4
-913 64 -1086 71 -209 221 -392 481 -588 28 -21 52 -40 52 -41 0 -2 -100 -3
-222 -3 -123 0 -233 0 -245 0 -21 -1 -23 -5 -23 -66 l0 -65 -39 39 c-79 79
-176 114 -291 105 -140 -11 -222 -76 -235 -188 -10 -79 23 -151 82 -185 16 -9
10 -18 -47 -75 l-64 -66 34 -35 c85 -88 201 -128 327 -113 108 12 180 55 209
123 42 102 12 209 -73 254 -22 11 -21 13 32 69 l55 57 82 -3 83 -3 -1 -245 0
-244 117 0 118 0 0 213 c0 116 0 228 0 247 l1 35 75 -3 75 -4 1 29 c1 15 1 43
0 61 -1 35 0 35 51 0 l28 -19 -23 -37 c-50 -82 -51 -88 -55 -310 l-4 -212 119
0 119 0 0 68 -1 67 69 1 68 1 -5 -35 c-4 -19 -20 -63 -36 -98 l-30 -64 37 -24
c79 -49 75 -49 120 -3 71 73 130 188 156 310 6 27 7 27 36 12 17 -9 30 -23 31
-33 0 -9 1 -59 0 -110 l0 -92 120 0 119 0 -1 48 c-1 26 -1 53 0 61 0 7 21 -14
46 -48 l45 -61 170 0 c93 0 170 2 170 4 0 2 -28 22 -63 45 -35 22 -81 57 -102
76 l-39 34 79 37 c136 62 164 73 168 66 2 -4 3 -64 2 -135 l-1 -127 118 0 118
0 0 203 1 202 96 58 c63 38 93 52 88 40 -19 -43 -32 -133 -29 -194 6 -130 68
-232 179 -292 59 -32 201 -32 265 1 66 35 115 87 146 156 27 60 27 65 29 263
l1 203 -35 1 c-58 2 -194 -1 -197 -4 -2 -2 -4 -98 -4 -214 -2 -222 -8 -260
-52 -287 -26 -16 -71 5 -88 39 -24 50 -19 250 9 362 13 51 22 96 20 100 -2 4
-15 6 -29 5 l-25 -3 21 18 c12 10 61 49 110 88 97 77 211 191 274 275 59 78
135 241 159 340 12 47 25 128 30 180 15 147 14 1663 0 1694 -14 31 -40 40 -99
36 -101 -6 -142 -8 -295 -14 -88 -4 -206 -9 -262 -12 l-103 -4 0 319 c0 214
-4 328 -11 344 -10 22 -131 102 -256 169 -17 10 -152 87 -298 173 -147 86
-279 158 -294 161 -16 3 -41 -3 -66 -17z m-1697 -3893 c33 -17 57 -44 66 -73
l7 -22 -58 20 c-32 11 -59 19 -61 19 -12 -6 -64 15 -71 28 -19 34 67 54 117
28z m1137 -107 c32 -19 35 -25 35 -65 l0 -44 -74 0 c-50 0 -75 4 -79 13 -5 15
0 124 7 144 5 12 11 12 41 -6 19 -12 51 -30 70 -42z m-1116 -203 c20 -13 12
-34 -18 -44 -30 -11 -81 -4 -118 16 -23 12 -63 63 -63 80 0 8 174 -37 199 -52z"/>
<path d="M4115 1090 l-40 -5 0 -315 0 -315 118 -3 117 -3 0 104 0 105 93 4
c104 5 156 25 202 80 44 52 58 95 52 159 -8 89 -57 148 -150 178 -38 13 -316
21 -392 11z m291 -152 c15 -15 21 -73 10 -105 -8 -24 -27 -34 -73 -38 l-33 -3
0 84 0 85 42 -5 c23 -3 47 -11 54 -18z"/>
</g>
</svg>
